<svg class="icon" viewBox="0 0 1024 1024" version="1.1" xmlns="http://www.w3.org/2000/svg" p-id="1610" height="128" width="128"><path d="M423.724138 459.034483a35.310345 35.310345 0 0 1-35.310345-35.310345V70.62069H70.62069v317.793103h176.551724a35.310345 35.310345 0 0 1 0 70.62069H35.310345a35.310345 35.310345 0 0 1-35.310345-35.310345V35.310345a35.310345 35.310345 0 0 1 35.310345-35.310345h388.413793a35.310345 35.310345 0 0 1 35.310345 35.310345v388.413793a35.310345 35.310345 0 0 1-35.310345 35.310345z" fill="#6B400D" p-id="1611"></path><path d="M151.834483 151.834483l155.365517 0 0 155.365517-155.365517 0 0-155.365517Z" fill="#FFC824" p-id="1612"></path><path d="M716.8 151.834483l155.365517 0 0 155.365517-155.365517 0 0-155.365517Z" fill="#FFC824" p-id="1613"></path><path d="M988.689655 459.034483h-211.862069a35.310345 35.310345 0 0 1 0-70.62069h176.551724V70.62069h-317.793103v353.103448a35.310345 35.310345 0 0 1-70.62069 0V35.310345a35.310345 35.310345 0 0 1 35.310345-35.310345h388.413793a35.310345 35.310345 0 0 1 35.310345 35.310345v388.413793a35.310345 35.310345 0 0 1-35.310345 35.310345z" fill="#6B400D" p-id="1614"></path><path d="M151.834483 716.8l155.365517 0 0 155.365517-155.365517 0 0-155.365517Z" fill="#FFC824" p-id="1615"></path><path d="M423.724138 1024H35.310345a35.310345 35.310345 0 0 1-35.310345-35.310345V600.275862a35.310345 35.310345 0 0 1 35.310345-35.310345h211.862069a35.310345 35.310345 0 0 1 0 70.62069H70.62069v317.793103h317.793103V600.275862a35.310345 35.310345 0 0 1 70.62069 0v388.413793a35.310345 35.310345 0 0 1-35.310345 35.310345zM600.275862 1024a35.310345 35.310345 0 0 1-35.310345-35.310345V600.275862a35.310345 35.310345 0 0 1 70.62069 0v388.413793a35.310345 35.310345 0 0 1-35.310345 35.310345zM988.689655 681.489655h-81.213793V635.586207H988.689655a35.310345 35.310345 0 0 0 0-70.62069h-116.524138a35.310345 35.310345 0 0 0-35.310345 35.310345v81.213793h-84.744827V600.275862a35.310345 35.310345 0 0 0-70.62069 0v116.524138a35.310345 35.310345 0 0 0 35.310345 35.310345H988.689655a35.310345 35.310345 0 0 0 0-70.62069zM988.689655 1024a35.310345 35.310345 0 0 1-35.310345-35.310345v-120.055172h-236.57931a35.310345 35.310345 0 0 1 0-70.62069H988.689655a35.310345 35.310345 0 0 1 35.310345 35.310345V988.689655a35.310345 35.310345 0 0 1-35.310345 35.310345zM716.8 1024a35.310345 35.310345 0 0 1-35.310345-35.310345v-38.841379a35.310345 35.310345 0 0 1 70.62069 0V988.689655a35.310345 35.310345 0 0 1-35.310345 35.310345z" fill="#6B400D" p-id="1616"></path><path d="M833.324138 1024a35.310345 35.310345 0 0 1-35.310345-35.310345v-38.841379a35.310345 35.310345 0 0 1 70.62069 0V988.689655a35.310345 35.310345 0 0 1-35.310345 35.310345z" fill="#6B400D" p-id="1617"></path></svg>