<svg class="icon" viewBox="0 0 1024 1024" version="1.1" xmlns="http://www.w3.org/2000/svg" p-id="2464" height="128" width="128"><path d="M985.6 1024 38.4 1024c-12.8 0-25.6-12.8-25.6-25.6 0-217.6 192-275.2 281.6-300.8 19.2-6.4 32-12.8 38.4-12.8 76.8-38.4 83.2-64 83.2-70.4 0-6.4 0-6.4 0-6.4C352 569.6 320 467.2 300.8 428.8c0 0 0-6.4 0-6.4C256 403.2 249.6 326.4 249.6 294.4c0-38.4 6.4-51.2 25.6-64C281.6 102.4 384 0 512 0c128 0 230.4 96 230.4 224 19.2 12.8 32 19.2 32 57.6 0 38.4-12.8 115.2-51.2 134.4 0 0 0 6.4 0 6.4-12.8 44.8-44.8 140.8-115.2 185.6 0 0 0 6.4 0 12.8 0 12.8 32 44.8 83.2 70.4 12.8 6.4 25.6 12.8 51.2 19.2 96 25.6 268.8 83.2 268.8 300.8C1011.2 1011.2 998.4 1024 985.6 1024zM64 979.2l896 0c-12.8-160-147.2-204.8-236.8-230.4-25.6-6.4-44.8-12.8-57.6-19.2l0 0c-32-19.2-108.8-57.6-108.8-115.2 0-25.6 6.4-44.8 25.6-51.2 51.2-32 83.2-121.6 96-153.6C684.8 384 691.2 371.2 704 371.2c6.4-6.4 25.6-51.2 25.6-89.6 0-12.8 0-19.2 0-19.2 0 0-6.4 0-6.4-6.4 0 0-6.4 0-6.4-6.4-6.4-6.4-12.8-12.8-12.8-19.2l0-6.4C697.6 128 620.8 44.8 512 44.8c-102.4 0-192 83.2-192 185.6l0 6.4C320 249.6 320 256 313.6 262.4 294.4 268.8 294.4 268.8 294.4 294.4c0 38.4 12.8 76.8 19.2 83.2 12.8 0 19.2 12.8 25.6 32C358.4 448 390.4 537.6 441.6 569.6 454.4 576 467.2 588.8 467.2 614.4c0 38.4-38.4 76.8-108.8 115.2-12.8 6.4-25.6 12.8-51.2 19.2C224 768 76.8 812.8 64 979.2z" p-id="2465"></path></svg>