<svg class="icon" viewBox="0 0 1024 1024" version="1.1" xmlns="http://www.w3.org/2000/svg" p-id="2138" height="128" width="128"><path d="M742.912 952.064H261.888c-109.184 0-197.76-88.576-197.76-197.76V273.28C64.128 164.096 152.704 75.52 261.888 75.52h481.024c109.184 0 197.76 88.576 197.76 197.76v481.024c0 109.184-88.576 197.76-197.76 197.76z" fill="#00E560" p-id="2139"></path><path d="M335.872 240.896l75.008 105.856c7.552 10.624 8.192 24.832 1.664 36.096l-27.648 47.744c-6.4 11.008-6.016 24.704 1.024 35.2 21.376 31.744 72.192 99.2 142.08 141.824 13.056 7.936 29.184 9.088 43.008 2.688l50.176-23.04c7.424-3.456 16.128-2.944 23.04 1.408l111.616 68.992c11.904 7.296 16.512 22.144 11.136 34.944-10.624 25.728-31.616 64.384-64.384 71.296-49.664 10.496-161.152-15.232-299.52-154.496s-179.2-251.776-164.864-323.328c0 0 22.656-38.656 69.504-54.4 10.368-3.584 21.888 0.384 28.16 9.216z" fill="#FFFFFF" p-id="2140"></path></svg>